<svg width="90" height="80" viewBox="0 0 90 80" fill="none" xmlns="http://www.w3.org/2000/svg">
<circle cx="55" cy="45" r="35" fill="#FFB328" fill-opacity="0.29"/>
<path d="M51.6667 40C60 40 66.6667 46.6667 66.6667 55C66.6667 57.9333 65.8333 60.7 64.3667 63L74.6333 73.3333L70 77.9667L59.6 67.7333C57.3 69.1667 54.5667 70 51.6667 70C43.3333 70 36.6667 63.3333 36.6667 55C36.6667 46.6667 43.3333 40 51.6667 40ZM51.6667 46.6667C49.4565 46.6667 47.3369 47.5446 45.7741 49.1074C44.2113 50.6702 43.3333 52.7899 43.3333 55C43.3333 57.2101 44.2113 59.3298 45.7741 60.8926C47.3369 62.4554 49.4565 63.3333 51.6667 63.3333C53.8768 63.3333 55.9964 62.4554 57.5592 60.8926C59.122 59.3298 60 57.2101 60 55C60 52.7899 59.122 50.6702 57.5592 49.1074C55.9964 47.5446 53.8768 46.6667 51.6667 46.6667ZM16.6667 10H63.3333C67.0333 10 70 12.9667 70 16.6667V43.4333C68.3333 40.7667 66.0333 38.4667 63.3333 36.6667V16.6667H16.6667V63.3333H31.6667C32.7 65.8333 34.2 68.0667 36.0333 70H16.6667C12.9667 70 10 67.0333 10 63.3333V16.6667C10 12.9667 12.9667 10 16.6667 10ZM23.3333 23.3333H56.6667V30H23.3333V23.3333ZM23.3333 36.6667H40.1C37.4333 38.3333 35.1333 40.6333 33.3333 43.3333H23.3333V36.6667ZM23.3333 50H30.5667C30.2 51.6667 30 53.3333 30 55V56.6667H23.3333V50Z" fill="#00008C"/>
</svg>
