<svg width="154" height="53" viewBox="0 0 154 53" fill="none" xmlns="http://www.w3.org/2000/svg">
<path d="M0 9.45024L44 3.84998V50.6L0 47.1911V9.45024Z" fill="#4747CB"/>
<path d="M0 6.325L40.7 0V52.8L0 48.95V6.325Z" fill="#00008C"/>
<circle cx="24.475" cy="12.375" r="3.575" fill="#FFB328"/>
<circle cx="11.275" cy="22.275" r="3.575" fill="#FFB328"/>
<circle cx="24.475" cy="31.075" r="3.575" fill="#FFB328"/>
<circle cx="11.275" cy="38.225" r="3.575" fill="#FFB328"/>
<path d="M24.475 12.65L11.275 22.275L24.475 31.35L11.275 38.5" stroke="#FFB328" stroke-width="1.65"/>
<path d="M18.5317 42.6039C18.3725 42.6039 18.2391 42.55 18.1313 42.4422C18.0235 42.3344 17.9696 42.2009 17.9696 42.0418C17.9696 41.8827 18.0235 41.7492 18.1313 41.6414C18.2391 41.5336 18.3725 41.4797 18.5317 41.4797C18.6857 41.4797 18.8166 41.5336 18.9244 41.6414C19.0322 41.7492 19.0861 41.8827 19.0861 42.0418C19.0861 42.2009 19.0322 42.3344 18.9244 42.4422C18.8166 42.55 18.6857 42.6039 18.5317 42.6039ZM19.7422 40.4094C19.7422 39.9833 19.8295 39.606 20.004 39.2775C20.1837 38.949 20.4249 38.6949 20.7278 38.5152C21.0358 38.3304 21.3772 38.238 21.7519 38.238C22.0291 38.238 22.3012 38.2996 22.5681 38.4228C22.8402 38.5409 23.0558 38.7 23.2149 38.9002V36.852H24.1004V42.55H23.2149V41.9109C23.0712 42.1162 22.871 42.2856 22.6143 42.4191C22.3628 42.5526 22.0727 42.6193 21.7442 42.6193C21.3746 42.6193 21.0358 42.5269 20.7278 42.3421C20.4249 42.1522 20.1837 41.8904 20.004 41.5567C19.8295 41.2179 19.7422 40.8355 19.7422 40.4094ZM23.2149 40.4248C23.2149 40.1322 23.1533 39.8781 23.0301 39.6625C22.912 39.4469 22.7555 39.2826 22.5604 39.1697C22.3653 39.0568 22.1549 39.0003 21.929 39.0003C21.7031 39.0003 21.4927 39.0568 21.2976 39.1697C21.1025 39.2775 20.9434 39.4392 20.8202 39.6548C20.7021 39.8653 20.6431 40.1168 20.6431 40.4094C20.6431 40.702 20.7021 40.9587 20.8202 41.1794C20.9434 41.4001 21.1025 41.5695 21.2976 41.6876C21.4978 41.8005 21.7083 41.857 21.929 41.857C22.1549 41.857 22.3653 41.8005 22.5604 41.6876C22.7555 41.5747 22.912 41.4104 23.0301 41.1948C23.1533 40.9741 23.2149 40.7174 23.2149 40.4248ZM27.0937 42.6193C26.6933 42.6193 26.3314 42.5295 26.008 42.3498C25.6846 42.165 25.4305 41.9083 25.2457 41.5798C25.0609 41.2461 24.9685 40.8611 24.9685 40.4248C24.9685 39.9936 25.0634 39.6112 25.2534 39.2775C25.4433 38.9438 25.7025 38.6872 26.0311 38.5075C26.3596 38.3278 26.7266 38.238 27.1322 38.238C27.5377 38.238 27.9047 38.3278 28.2333 38.5075C28.5618 38.6872 28.821 38.9438 29.011 39.2775C29.2009 39.6112 29.2959 39.9936 29.2959 40.4248C29.2959 40.856 29.1983 41.2384 29.0033 41.5721C28.8082 41.9058 28.5413 42.165 28.2025 42.3498C27.8688 42.5295 27.4992 42.6193 27.0937 42.6193ZM27.0937 41.857C27.3195 41.857 27.53 41.8031 27.7251 41.6953C27.9253 41.5875 28.087 41.4258 28.2102 41.2102C28.3334 40.9946 28.395 40.7328 28.395 40.4248C28.395 40.1168 28.3359 39.8576 28.2179 39.6471C28.0998 39.4315 27.9432 39.2698 27.7482 39.162C27.5531 39.0542 27.3426 39.0003 27.1168 39.0003C26.8909 39.0003 26.6804 39.0542 26.4854 39.162C26.2954 39.2698 26.144 39.4315 26.0311 39.6471C25.9181 39.8576 25.8617 40.1168 25.8617 40.4248C25.8617 40.8817 25.9772 41.2359 26.2082 41.4874C26.4443 41.7338 26.7395 41.857 27.0937 41.857ZM29.871 40.4248C29.871 39.9885 29.9583 39.606 30.1328 39.2775C30.3125 38.9438 30.5589 38.6872 30.872 38.5075C31.1851 38.3278 31.5445 38.238 31.95 38.238C32.4633 38.238 32.8868 38.3612 33.2205 38.6076C33.5593 38.8489 33.7877 39.1954 33.9058 39.6471H32.9587C32.8817 39.4366 32.7585 39.2724 32.5891 39.1543C32.4197 39.0362 32.2067 38.9772 31.95 38.9772C31.5907 38.9772 31.3032 39.1055 31.0876 39.3622C30.8771 39.6137 30.7719 39.9679 30.7719 40.4248C30.7719 40.8817 30.8771 41.2384 31.0876 41.4951C31.3032 41.7518 31.5907 41.8801 31.95 41.8801C32.4582 41.8801 32.7944 41.6568 32.9587 41.2102H33.9058C33.7826 41.6414 33.5516 41.9853 33.2128 42.242C32.874 42.4935 32.4531 42.6193 31.95 42.6193C31.5445 42.6193 31.1851 42.5295 30.872 42.3498C30.5589 42.165 30.3125 41.9083 30.1328 41.5798C29.9583 41.2461 29.871 40.8611 29.871 40.4248Z" fill="white"/>
<path d="M58.08 33.14C57.1467 33.14 56.3067 32.98 55.56 32.66C54.8133 32.3267 54.2267 31.86 53.8 31.26C53.3733 30.66 53.16 29.96 53.16 29.16H55.6C55.6533 29.76 55.8867 30.2533 56.3 30.64C56.7267 31.0267 57.32 31.22 58.08 31.22C58.8667 31.22 59.48 31.0333 59.92 30.66C60.36 30.2733 60.58 29.78 60.58 29.18C60.58 28.7133 60.44 28.3333 60.16 28.04C59.8933 27.7467 59.5533 27.52 59.14 27.36C58.74 27.2 58.18 27.0267 57.46 26.84C56.5533 26.6 55.8133 26.36 55.24 26.12C54.68 25.8667 54.2 25.48 53.8 24.96C53.4 24.44 53.2 23.7467 53.2 22.88C53.2 22.08 53.4 21.38 53.8 20.78C54.2 20.18 54.76 19.72 55.48 19.4C56.2 19.08 57.0333 18.92 57.98 18.92C59.3267 18.92 60.4267 19.26 61.28 19.94C62.1467 20.6067 62.6267 21.5267 62.72 22.7H60.2C60.16 22.1933 59.92 21.76 59.48 21.4C59.04 21.04 58.46 20.86 57.74 20.86C57.0867 20.86 56.5533 21.0267 56.14 21.36C55.7267 21.6933 55.52 22.1733 55.52 22.8C55.52 23.2267 55.6467 23.58 55.9 23.86C56.1667 24.1267 56.5 24.34 56.9 24.5C57.3 24.66 57.8467 24.8333 58.54 25.02C59.46 25.2733 60.2067 25.5267 60.78 25.78C61.3667 26.0333 61.86 26.4267 62.26 26.96C62.6733 27.48 62.88 28.18 62.88 29.06C62.88 29.7667 62.6867 30.4333 62.3 31.06C61.9267 31.6867 61.3733 32.1933 60.64 32.58C59.92 32.9533 59.0667 33.14 58.08 33.14ZM71.2703 21.8C72.1103 21.8 72.857 21.98 73.5103 22.34C74.177 22.7 74.697 23.2333 75.0703 23.94C75.457 24.6467 75.6503 25.5 75.6503 26.5V33H73.3903V26.84C73.3903 25.8533 73.1436 25.1 72.6503 24.58C72.157 24.0467 71.4836 23.78 70.6303 23.78C69.777 23.78 69.097 24.0467 68.5903 24.58C68.097 25.1 67.8503 25.8533 67.8503 26.84V33H65.5703V18.2H67.8503V23.26C68.237 22.7933 68.7236 22.4333 69.3103 22.18C69.9103 21.9267 70.5636 21.8 71.2703 21.8ZM77.7986 27.44C77.7986 26.3333 78.0253 25.3533 78.4786 24.5C78.9453 23.6467 79.5719 22.9867 80.3586 22.52C81.1586 22.04 82.0386 21.8 82.9986 21.8C83.8653 21.8 84.6186 21.9733 85.2586 22.32C85.9119 22.6533 86.4319 23.0733 86.8186 23.58V21.98H89.1186V33H86.8186V31.36C86.4319 31.88 85.9053 32.3133 85.2386 32.66C84.5719 33.0067 83.8119 33.18 82.9586 33.18C82.0119 33.18 81.1453 32.94 80.3586 32.46C79.5719 31.9667 78.9453 31.2867 78.4786 30.42C78.0253 29.54 77.7986 28.5467 77.7986 27.44ZM86.8186 27.48C86.8186 26.72 86.6586 26.06 86.3386 25.5C86.0319 24.94 85.6253 24.5133 85.1186 24.22C84.6119 23.9267 84.0653 23.78 83.4786 23.78C82.8919 23.78 82.3453 23.9267 81.8386 24.22C81.3319 24.5 80.9186 24.92 80.5986 25.48C80.2919 26.0267 80.1386 26.68 80.1386 27.44C80.1386 28.2 80.2919 28.8667 80.5986 29.44C80.9186 30.0133 81.3319 30.4533 81.8386 30.76C82.3586 31.0533 82.9053 31.2 83.4786 31.2C84.0653 31.2 84.6119 31.0533 85.1186 30.76C85.6253 30.4667 86.0319 30.04 86.3386 29.48C86.6586 28.9067 86.8186 28.24 86.8186 27.48ZM94.3933 23.58C94.7266 23.02 95.1666 22.5867 95.7133 22.28C96.2733 21.96 96.9333 21.8 97.6933 21.8V24.16H97.1133C96.2199 24.16 95.5399 24.3867 95.0733 24.84C94.6199 25.2933 94.3933 26.08 94.3933 27.2V33H92.1133V21.98H94.3933V23.58ZM109.889 27.22C109.889 27.6333 109.862 28.0067 109.809 28.34H101.389C101.456 29.22 101.782 29.9267 102.369 30.46C102.956 30.9933 103.676 31.26 104.529 31.26C105.756 31.26 106.622 30.7467 107.129 29.72H109.589C109.256 30.7333 108.649 31.5667 107.769 32.22C106.902 32.86 105.822 33.18 104.529 33.18C103.476 33.18 102.529 32.9467 101.689 32.48C100.862 32 100.209 31.3333 99.7291 30.48C99.2624 29.6133 99.0291 28.6133 99.0291 27.48C99.0291 26.3467 99.2557 25.3533 99.7091 24.5C100.176 23.6333 100.822 22.9667 101.649 22.5C102.489 22.0333 103.449 21.8 104.529 21.8C105.569 21.8 106.496 22.0267 107.309 22.48C108.122 22.9333 108.756 23.5733 109.209 24.4C109.662 25.2133 109.889 26.1533 109.889 27.22ZM107.509 26.5C107.496 25.66 107.196 24.9867 106.609 24.48C106.022 23.9733 105.296 23.72 104.429 23.72C103.642 23.72 102.969 23.9733 102.409 24.48C101.849 24.9733 101.516 25.6467 101.409 26.5H107.509ZM113.053 33.14C112.639 33.14 112.293 33 112.013 32.72C111.733 32.44 111.593 32.0933 111.593 31.68C111.593 31.2667 111.733 30.92 112.013 30.64C112.293 30.36 112.639 30.22 113.053 30.22C113.453 30.22 113.793 30.36 114.073 30.64C114.353 30.92 114.493 31.2667 114.493 31.68C114.493 32.0933 114.353 32.44 114.073 32.72C113.793 33 113.453 33.14 113.053 33.14ZM116.197 27.44C116.197 26.3333 116.424 25.3533 116.877 24.5C117.344 23.6467 117.97 22.9867 118.757 22.52C119.557 22.04 120.444 21.8 121.417 21.8C122.137 21.8 122.844 21.96 123.537 22.28C124.244 22.5867 124.804 23 125.217 23.52V18.2H127.517V33H125.217V31.34C124.844 31.8733 124.324 32.3133 123.657 32.66C123.004 33.0067 122.25 33.18 121.397 33.18C120.437 33.18 119.557 32.94 118.757 32.46C117.97 31.9667 117.344 31.2867 116.877 30.42C116.424 29.54 116.197 28.5467 116.197 27.44ZM125.217 27.48C125.217 26.72 125.057 26.06 124.737 25.5C124.43 24.94 124.024 24.5133 123.517 24.22C123.01 23.9267 122.464 23.78 121.877 23.78C121.29 23.78 120.744 23.9267 120.237 24.22C119.73 24.5 119.317 24.92 118.997 25.48C118.69 26.0267 118.537 26.68 118.537 27.44C118.537 28.2 118.69 28.8667 118.997 29.44C119.317 30.0133 119.73 30.4533 120.237 30.76C120.757 31.0533 121.304 31.2 121.877 31.2C122.464 31.2 123.01 31.0533 123.517 30.76C124.024 30.4667 124.43 30.04 124.737 29.48C125.057 28.9067 125.217 28.24 125.217 27.48ZM135.292 33.18C134.252 33.18 133.312 32.9467 132.472 32.48C131.632 32 130.972 31.3333 130.492 30.48C130.012 29.6133 129.772 28.6133 129.772 27.48C129.772 26.36 130.018 25.3667 130.512 24.5C131.005 23.6333 131.678 22.9667 132.532 22.5C133.385 22.0333 134.338 21.8 135.392 21.8C136.445 21.8 137.398 22.0333 138.252 22.5C139.105 22.9667 139.778 23.6333 140.272 24.5C140.765 25.3667 141.012 26.36 141.012 27.48C141.012 28.6 140.758 29.5933 140.252 30.46C139.745 31.3267 139.052 32 138.172 32.48C137.305 32.9467 136.345 33.18 135.292 33.18ZM135.292 31.2C135.878 31.2 136.425 31.06 136.932 30.78C137.452 30.5 137.872 30.08 138.192 29.52C138.512 28.96 138.672 28.28 138.672 27.48C138.672 26.68 138.518 26.0067 138.212 25.46C137.905 24.9 137.498 24.48 136.992 24.2C136.485 23.92 135.938 23.78 135.352 23.78C134.765 23.78 134.218 23.92 133.712 24.2C133.218 24.48 132.825 24.9 132.532 25.46C132.238 26.0067 132.092 26.68 132.092 27.48C132.092 28.6667 132.392 29.5867 132.992 30.24C133.605 30.88 134.372 31.2 135.292 31.2ZM142.506 27.48C142.506 26.3467 142.732 25.3533 143.186 24.5C143.652 23.6333 144.292 22.9667 145.106 22.5C145.919 22.0333 146.852 21.8 147.906 21.8C149.239 21.8 150.339 22.12 151.206 22.76C152.086 23.3867 152.679 24.2867 152.986 25.46H150.526C150.326 24.9133 150.006 24.4867 149.566 24.18C149.126 23.8733 148.572 23.72 147.906 23.72C146.972 23.72 146.226 24.0533 145.666 24.72C145.119 25.3733 144.846 26.2933 144.846 27.48C144.846 28.6667 145.119 29.5933 145.666 30.26C146.226 30.9267 146.972 31.26 147.906 31.26C149.226 31.26 150.099 30.68 150.526 29.52H152.986C152.666 30.64 152.066 31.5333 151.186 32.2C150.306 32.8533 149.212 33.18 147.906 33.18C146.852 33.18 145.919 32.9467 145.106 32.48C144.292 32 143.652 31.3333 143.186 30.48C142.732 29.6133 142.506 28.6133 142.506 27.48Z" fill="#4D4D4D"/>
</svg>
